<svg width="200" height="38" viewBox="0 0 200 38" fill="none" xmlns="http://www.w3.org/2000/svg">
<path d="M7.54475 6.67285H28.3307C30.0672 6.67285 31.9115 7.16386 33.4085 8.43329C34.7937 9.60692 35.7278 11.4751 35.8595 13.6348H30.4105C30.3666 12.5849 30.0513 12.1538 29.6361 11.8025C29.193 11.4233 28.4585 11.1758 27.6481 11.1758H8.22737C7.41701 11.1758 6.6825 11.4272 6.23939 11.8025C5.79629 12.1817 5.46096 12.6528 5.46096 13.8863V15.2954C5.46096 16.5289 5.79629 17 6.23939 17.3792C6.6825 17.7584 7.41701 18.0059 8.22737 18.0059H29.1691C30.9055 18.0059 32.7498 18.497 34.2468 19.7664C35.7438 21.0358 36.7138 23.1116 36.7138 25.4908L36.6899 26.9C36.6539 29.2792 35.7198 31.359 34.2228 32.6244C32.7259 33.8938 30.8816 34.3848 29.1451 34.3848H7.54475C5.80826 34.3848 3.96399 33.8938 2.46701 32.6244C0.970039 31.355 0 29.2792 0 26.9L0.0199594 26.0736H5.45697C5.45697 26.6205 5.45697 27.1714 5.45697 27.1714C5.45697 28.4049 5.79229 28.876 6.2354 29.2552C6.6785 29.6344 7.41302 29.8819 8.22338 29.8819H28.4625C29.2728 29.8819 30.0074 29.6305 30.4505 29.2552C30.8936 28.88 31.2289 28.4049 31.2289 27.1714C31.2289 27.1714 31.2289 25.5707 31.2289 24.7204C31.1491 23.8501 30.8497 23.4549 30.4704 23.1356C30.0273 22.7563 29.2928 22.5089 28.4824 22.5089H7.54475C5.80826 22.5089 3.96399 22.0178 2.46701 20.7484C1.01395 19.5149 0.0558871 17.5189 0.00399202 15.2236H0V14.1577C0 11.7785 0.970039 9.69874 2.46701 8.43329C3.96399 7.16386 5.80826 6.67285 7.54475 6.67285Z" fill="black"/>
<path d="M71.5573 6.66797C73.2938 6.66797 75.1381 7.15898 76.635 8.42841C78.132 9.69785 79.102 11.7737 79.102 14.1528V26.8951C79.102 29.2783 78.132 31.3541 76.635 32.6195C75.1381 33.889 73.2938 34.38 71.5573 34.38H47.7694C46.0329 34.38 44.1886 33.889 42.6916 32.6195C41.1947 31.3501 40.2246 29.2743 40.2246 26.8951V14.1568C40.2246 11.7737 41.1947 9.69785 42.6916 8.4324C44.1886 7.16297 46.0329 6.67196 47.7694 6.67196H71.5573V6.66797ZM46.464 11.8016C46.0169 12.1808 45.6856 12.6519 45.6856 13.8854V27.1705C45.6856 28.404 46.0209 28.8751 46.464 29.2543C46.9071 29.6336 47.6416 29.8811 48.452 29.8811H70.8747C71.685 29.8811 72.4195 29.6296 72.8627 29.2543C73.3097 28.8751 73.6411 28.404 73.6411 27.1705V13.8814C73.6411 12.6479 73.3058 12.1728 72.8627 11.7976C72.4195 11.4184 71.685 11.1709 70.8747 11.1709H48.452C47.6416 11.1709 46.9071 11.4224 46.464 11.8016Z" fill="black"/>
<path d="M114.522 6.66797C116.259 6.66797 118.103 7.15898 119.6 8.42841C121.097 9.69785 122.067 11.7737 122.067 14.1528L122.019 16.061H116.61V13.8814C116.61 12.6479 116.275 12.1728 115.831 11.7976C115.384 11.4184 114.654 11.1709 113.843 11.1709H91.4207C90.6104 11.1709 89.8759 11.4224 89.4327 11.7976C88.9856 12.1768 88.6543 12.6479 88.6543 13.8814V27.1705C88.6543 28.404 88.9896 28.8751 89.4327 29.2543C89.8759 29.6336 90.6104 29.8811 91.4207 29.8811H113.843C114.654 29.8811 115.388 29.6296 115.831 29.2543C116.275 28.8751 116.61 28.404 116.61 27.1705V24.9909H122.019L122.067 26.8991C122.067 29.2823 121.097 31.3581 119.6 32.6235C118.103 33.8929 116.259 34.384 114.522 34.384H90.7381C88.9976 34.384 87.1534 33.8929 85.6604 32.6235C84.1634 31.3541 83.1934 29.2783 83.1934 26.8991V14.1568C83.1934 11.7737 84.1634 9.69785 85.6604 8.4324C87.1573 7.16297 89.0016 6.67196 90.7381 6.67196L114.522 6.66797Z" fill="black"/>
<path d="M199.999 6.66797V11.1709H170.267V18.2286H198.195V22.7315H170.267V29.885H199.999V34.3879H164.834V6.66797H199.999Z" fill="black"/>
<path d="M142.383 10.7184C144.659 11.377 147.417 12.902 150.04 14.4389L142.715 2L137.812 10.3272C139.154 10.1755 140.699 10.2354 142.383 10.7184Z" stroke="#A1A1A1" stroke-width="1.25" stroke-miterlimit="10"/>
<path d="M142.383 10.7184C144.659 11.377 147.417 12.902 150.04 14.4389L142.715 2L137.812 10.3272C139.154 10.1755 140.699 10.2354 142.383 10.7184Z" fill="white"/>
<path d="M142.383 10.7184C144.659 11.377 147.417 12.902 150.04 14.4389L142.715 2L137.812 10.3272C139.154 10.1755 140.699 10.2354 142.383 10.7184Z" fill="url(#paint0_linear_117_52)"/>
<path opacity="0.7" d="M142.383 10.7184C144.659 11.377 147.417 12.902 150.04 14.4389L142.715 2L137.812 10.3272C139.154 10.1755 140.699 10.2354 142.383 10.7184Z" fill="url(#paint1_linear_117_52)"/>
<path d="M127.581 26.8645L123.154 34.2216C123.154 34.2216 133.869 24.9763 144.272 25.1559C144.276 25.1559 133.078 20.8087 127.581 26.8645Z" stroke="#C2C2C2" stroke-width="1.25" stroke-miterlimit="10"/>
<path d="M127.581 26.8645L123.154 34.2216C123.154 34.2216 133.869 24.9763 144.272 25.1559C144.276 25.1559 133.078 20.8087 127.581 26.8645Z" fill="white"/>
<path d="M127.581 26.8645L123.154 34.2216C123.154 34.2216 133.869 24.9763 144.272 25.1559C144.276 25.1559 133.078 20.8087 127.581 26.8645Z" fill="url(#paint2_linear_117_52)"/>
<path opacity="0.7" d="M127.581 26.8645L123.154 34.2216C123.154 34.2216 133.869 24.9763 144.272 25.1559C144.276 25.1559 133.078 20.8087 127.581 26.8645Z" fill="url(#paint3_linear_117_52)"/>
<path d="M146.249 23.0691C152.196 26.8774 158.252 31.2206 161.386 33.6757L152.751 19.0093C150.424 17.8397 147.869 16.4904 145.398 15.0453C141.786 12.9296 138.528 12.8138 136.093 13.2769L130.576 22.646C133.079 21.3765 139.65 18.8456 146.249 23.0691Z" fill="url(#paint4_linear_117_52)" stroke="#6F1425" stroke-width="0.3" stroke-miterlimit="10"/>
<defs>
<linearGradient id="paint0_linear_117_52" x1="150.216" y1="14.2219" x2="139.709" y2="5.71305" gradientUnits="userSpaceOnUse">
<stop stop-color="white"/>
<stop offset="0.1685" stop-color="#0B0B0B"/>
<stop offset="0.2637" stop-color="#7F7F7F"/>
<stop offset="0.3956" stop-color="#8E8E8E"/>
<stop offset="0.5421" stop-color="#636363"/>
<stop offset="0.6264" stop-color="#5F5F5F"/>
<stop offset="0.7179" stop-color="#EAEAEA"/>
<stop offset="0.7912" stop-color="white"/>
<stop offset="1"/>
</linearGradient>
<linearGradient id="paint1_linear_117_52" x1="143.872" y1="12.5312" x2="147.122" y2="3.60412" gradientUnits="userSpaceOnUse">
<stop stop-color="#3C4F9D" stop-opacity="0.16"/>
<stop offset="0.1923" stop-color="#3E519E" stop-opacity="0.0971"/>
<stop offset="0.2616" stop-color="#4557A1" stop-opacity="0.0744"/>
<stop offset="0.311" stop-color="#5061A7" stop-opacity="0.0582"/>
<stop offset="0.3509" stop-color="#6171B0" stop-opacity="0.0452"/>
<stop offset="0.3852" stop-color="#7785BB" stop-opacity="0.034"/>
<stop offset="0.4154" stop-color="#939DC9" stop-opacity="0.0241"/>
<stop offset="0.4428" stop-color="#B3BAD9" stop-opacity="0.0151"/>
<stop offset="0.4672" stop-color="#D7DBEB" stop-opacity="0.01"/>
<stop offset="0.489" stop-color="white" stop-opacity="0"/>
<stop offset="0.6538" stop-color="white" stop-opacity="0.65"/>
<stop offset="0.6552" stop-color="white" stop-opacity="0.65"/>
<stop offset="0.7967" stop-color="white" stop-opacity="0.65"/>
<stop offset="1" stop-color="white" stop-opacity="0.77"/>
</linearGradient>
<linearGradient id="paint2_linear_117_52" x1="137.877" y1="33.0571" x2="128.631" y2="25.57" gradientUnits="userSpaceOnUse">
<stop stop-color="white"/>
<stop offset="0.1685" stop-color="#0B0B0B"/>
<stop offset="0.2637" stop-color="#7F7F7F"/>
<stop offset="0.3956" stop-color="#8E8E8E"/>
<stop offset="0.5421" stop-color="#636363"/>
<stop offset="0.6264" stop-color="#5F5F5F"/>
<stop offset="0.7179" stop-color="#EAEAEA"/>
<stop offset="0.7912" stop-color="white"/>
<stop offset="1"/>
</linearGradient>
<linearGradient id="paint3_linear_117_52" x1="131.024" y1="37.0845" x2="136.409" y2="22.291" gradientUnits="userSpaceOnUse">
<stop stop-color="#3C4F9D" stop-opacity="0.16"/>
<stop offset="0.1923" stop-color="#3E519E" stop-opacity="0.0971"/>
<stop offset="0.2616" stop-color="#4557A1" stop-opacity="0.0744"/>
<stop offset="0.311" stop-color="#5061A7" stop-opacity="0.0582"/>
<stop offset="0.3509" stop-color="#6171B0" stop-opacity="0.0452"/>
<stop offset="0.3852" stop-color="#7785BB" stop-opacity="0.034"/>
<stop offset="0.4154" stop-color="#939DC9" stop-opacity="0.0241"/>
<stop offset="0.4428" stop-color="#B3BAD9" stop-opacity="0.0151"/>
<stop offset="0.4672" stop-color="#D7DBEB" stop-opacity="0.01"/>
<stop offset="0.489" stop-color="white" stop-opacity="0"/>
<stop offset="0.6538" stop-color="white" stop-opacity="0.65"/>
<stop offset="0.6552" stop-color="white" stop-opacity="0.65"/>
<stop offset="0.7967" stop-color="white" stop-opacity="0.65"/>
<stop offset="1" stop-color="white" stop-opacity="0.77"/>
</linearGradient>
<linearGradient id="paint4_linear_117_52" x1="130.577" y1="23.3675" x2="161.384" y2="23.3675" gradientUnits="userSpaceOnUse">
<stop offset="0.005618" stop-color="#7C122F"/>
<stop offset="0.2764" stop-color="#A11840"/>
<stop offset="0.4974" stop-color="#ED73AA"/>
<stop offset="0.6122" stop-color="#C24562"/>
<stop offset="0.7743" stop-color="#861313"/>
<stop offset="1" stop-color="#A11840"/>
</linearGradient>
</defs>
</svg>
